<mxfile host="app.diagrams.net" modified="2023-07-07T22:25:55.239Z" agent="Mozilla/5.0 (Macintosh; Intel Mac OS X 10_15_7) AppleWebKit/605.1.15 (KHTML, like Gecko) Version/16.4 Safari/605.1.15" version="21.6.1" etag="fkNmKBQ43exeOpfckXkV" type="github">
  <diagram name="Сторінка-1" id="st-MPC446TSw53hRUilF">
    <mxGraphModel>
      <root>
        <mxCell id="0" />
        <mxCell id="1" parent="0" />
      </root>
    </mxGraphModel>
  </diagram>
</mxfile>
